SRRun02_grf
version=1
nRows=24
nColumns=19
inDegrees=no
endheader
time	ground_force_r_vx	ground_force_r_vy	ground_force_r_vz	ground_force_r_px	ground_force_r_py	ground_force_r_pz	ground_force_r_mx	ground_force_r_my	ground_force_r_mz	ground_force_l_vx	ground_force_l_vy	ground_force_l_vz	ground_force_l_px	ground_force_l_py	ground_force_l_pz	ground_force_l_mx	ground_force_l_my	ground_force_l_mz
    139.99600000	      0.00000000	      0.00000000	      0.00000000	      0.00000000	      0.00000000	      0.00000000	      0.00000000	      0.00000000	      0.00000000	   -192.65113959	   1677.38367373	     80.10974124	      1.07798062	      0.00000000	     -0.41161847	     -0.00001406	      3.42594086	      0.00012059
    139.99700000	      0.00000000	      0.00000000	      0.00000000	      0.00000000	      0.00000000	      0.00000000	      0.00000000	      0.00000000	      0.00000000	   -191.46121657	   1683.70502580	     95.43922887	      1.07409313	      0.00000000	     -0.41116063	     -0.00000901	      7.25973824	      0.00010692
    139.99800000	      0.00000000	      0.00000000	      0.00000000	      0.00000000	      0.00000000	      0.00000000	      0.00000000	      0.00000000	      0.00000000	   -190.75198063	   1690.37405814	    109.34202740	      1.07001172	      0.00000000	     -0.41074439	     -0.00000421	     11.17028890	      0.00009479
    139.99900000	      0.00000000	      0.00000000	      0.00000000	      0.00000000	      0.00000000	      0.00000000	      0.00000000	      0.00000000	      0.00000000	   -190.57783809	   1697.34892664	    121.05422273	      1.06576525	      0.00000000	     -0.41039158	      0.00000016	     15.06787265	      0.00008484
    140.00000000	      0.00000000	      0.00000000	      0.00000000	      0.00000000	      0.00000000	      0.00000000	      0.00000000	      0.00000000	      0.00000000	   -190.89450993	   1704.59509792	    129.91488768	      1.06137792	      0.00000000	     -0.41011981	      0.00000397	     18.83954493	      0.00007752
    140.00100000	      0.00000000	      0.00000000	      0.00000000	      0.00000000	      0.00000000	      0.00000000	      0.00000000	      0.00000000	      0.00000000	   -191.55103082	   1712.08148203	    135.41961145	      1.05687119	      0.00000000	     -0.40994125	      0.00000716	     22.35226487	      0.00007308
    140.00200000	      0.00000000	      0.00000000	      0.00000000	      0.00000000	      0.00000000	      0.00000000	      0.00000000	      0.00000000	      0.00000000	   -192.29683288	   1719.77353732	    137.26234739	      1.05226761	      0.00000000	     -0.40986204	      0.00000971	     25.46014294	      0.00007152
    140.00300000	      0.00000000	      0.00000000	      0.00000000	      0.00000000	      0.00000000	      0.00000000	      0.00000000	      0.00000000	      0.00000000	   -192.80387588	   1727.62464776	    135.36218580	      1.04759554	      0.00000000	     -0.40988225	      0.00001167	     28.01553850	      0.00007263
    140.00400000	      0.00000000	      0.00000000	      0.00000000	      0.00000000	      0.00000000	      0.00000000	      0.00000000	      0.00000000	      0.00000000	   -192.70138382	   1735.56784410	    129.87273175	      1.04289386	      0.00000000	     -0.40999652	      0.00001311	     29.88308745	      0.00007600
    140.00500000	      0.00000000	      0.00000000	      0.00000000	      0.00000000	      0.00000000	      0.00000000	      0.00000000	      0.00000000	      0.00000000	   -191.61882735	   1743.51011455	    121.17319043	      1.03821517	      0.00000000	     -0.41019507	      0.00001415	     30.95513740	      0.00008104
    140.00600000	      0.00000000	      0.00000000	      0.00000000	      0.00000000	      0.00000000	      0.00000000	      0.00000000	      0.00000000	      0.00000000	   -189.23159402	   1751.33101816	    109.84215426	      1.03362666	      0.00000000	     -0.41046505	      0.00001492	     31.16660233	      0.00008711
    140.00700000	      0.00000000	      0.00000000	      0.00000000	      0.00000000	      0.00000000	      0.00000000	      0.00000000	      0.00000000	      0.00000000	   -185.30336034	   1758.88635841	     96.61695320	      1.02920818	      0.00000000	     -0.41079172	      0.00001551	     30.50712573	      0.00009355
    140.00800000	      0.00000000	      0.00000000	      0.00000000	      0.00000000	      0.00000000	      0.00000000	      0.00000000	      0.00000000	      0.00000000	   -179.71954468	   1766.01663259	     82.34260618	      1.02504763	      0.00000000	     -0.41115949	      0.00001604	     29.02874120	      0.00009974
    140.00900000	      0.00000000	      0.00000000	      0.00000000	      0.00000000	      0.00000000	      0.00000000	      0.00000000	      0.00000000	      0.00000000	   -172.50736790	   1772.55905030	     67.91469476	      1.02123437	      0.00000000	     -0.41155246	      0.00001657	     26.84773843	      0.00010518
    140.01000000	      0.00000000	      0.00000000	      0.00000000	      0.00000000	      0.00000000	      0.00000000	      0.00000000	      0.00000000	      0.00000000	   -163.83982067	   1778.36129176	     54.22021503	      1.01785166	      0.00000000	     -0.41195479	      0.00001713	     24.13999117	      0.00010953
    140.01100000	      0.00000000	      0.00000000	      0.00000000	      0.00000000	      0.00000000	      0.00000000	      0.00000000	      0.00000000	      0.00000000	   -154.02294303	   1783.29503026	     42.08015682	      1.01496932	      0.00000000	     -0.41235096	      0.00001774	     21.12965607	      0.00011261
    140.01200000	      0.00000000	      0.00000000	      0.00000000	      0.00000000	      0.00000000	      0.00000000	      0.00000000	      0.00000000	      0.00000000	   -143.46797180	   1787.26755600	     32.19745541	      1.01263739	      0.00000000	     -0.41272612	      0.00001839	     18.07200266	      0.00011440
    140.01300000	      0.00000000	      0.00000000	      0.00000000	      0.00000000	      0.00000000	      0.00000000	      0.00000000	      0.00000000	      0.00000000	   -132.65183365	   1790.23034428	     25.11388209	      1.01088157	      0.00000000	     -0.41306660	      0.00001903	     15.23199096	      0.00011503
    140.01400000	      0.00000000	      0.00000000	      0.00000000	      0.00000000	      0.00000000	      0.00000000	      0.00000000	      0.00000000	      0.00000000	   -122.07086061	   1792.18384185	     21.17898361	      1.00970074	      0.00000000	     -0.41336055	      0.00001963	     12.86080801	      0.00011471
    140.01500000	      0.00000000	      0.00000000	      0.00000000	      0.00000000	      0.00000000	      0.00000000	      0.00000000	      0.00000000	      0.00000000	   -112.19320592	   1793.17804784	     20.53316245	      1.00906670	      0.00000000	     -0.41359854	      0.00002012	     11.17285198	      0.00011371
    140.01600000	      0.00000000	      0.00000000	      0.00000000	      0.00000000	      0.00000000	      0.00000000	      0.00000000	      0.00000000	      0.00000000	   -103.41517463	   1793.30875384	     23.10566772	      1.00892626	      0.00000000	     -0.41377410	      0.00002047	     10.32562856	      0.00011231
    140.01700000	      0.00000000	      0.00000000	      0.00000000	      0.00000000	      0.00000000	      0.00000000	      0.00000000	      0.00000000	      0.00000000	    -96.02580338	   1792.70971418	     28.62702174	      1.00920555	      0.00000000	     -0.41388410	      0.00002061	     10.40467182	      0.00011077
    140.01800000	      0.00000000	      0.00000000	      0.00000000	      0.00000000	      0.00000000	      0.00000000	      0.00000000	      0.00000000	      0.00000000	    -90.18285601	   1791.54155407	     36.65442464	      1.00981594	      0.00000000	     -0.41392898	      0.00002051	     11.41499508	      0.00010931
    140.01900000	      0.00000000	      0.00000000	      0.00000000	      0.00000000	      0.00000000	      0.00000000	      0.00000000	      0.00000000	      0.00000000	    -85.90210434	   1789.97867886	     46.60793368	      1.01066116	      0.00000000	     -0.41391259	      0.00002015	     13.27992673	      0.00010807
